<svg width="136" height="20" viewBox="0 0 136 20" fill="none" xmlns="http://www.w3.org/2000/svg">
<path d="M135.111 2.50008C134.26 3.06298 133.317 3.4935 132.319 3.77508C131.783 3.198 131.072 2.78899 130.28 2.60335C129.488 2.41771 128.655 2.46441 127.892 2.73712C127.13 3.00984 126.475 3.49541 126.017 4.12818C125.558 4.76094 125.318 5.51036 125.329 6.27508V7.10841C123.766 7.14639 122.218 6.82159 120.821 6.16295C119.425 5.50431 118.224 4.53228 117.325 3.33341C117.325 3.33341 113.768 10.8334 121.772 14.1667C119.94 15.3317 117.759 15.9159 115.547 15.8334C123.551 20.0001 133.333 15.8334 133.333 6.25008C133.332 6.01796 133.308 5.78641 133.262 5.55841C134.169 4.71966 134.81 3.66067 135.111 2.50008Z" fill="white"/>
<path d="M16.0068 1.66675H13.339C12.1597 1.66675 11.0287 2.10573 10.1948 2.88714C9.36096 3.66854 8.89249 4.72835 8.89249 5.83342V8.33342H6.22461V11.6667H8.89249V18.3334H12.4497V11.6667H15.1176L16.0068 8.33342H12.4497V5.83342C12.4497 5.6124 12.5434 5.40044 12.7101 5.24416C12.8769 5.08788 13.1031 5.00008 13.339 5.00008H16.0068V1.66675Z" fill="white"/>
<g clip-path="url(#clip0_1_1014)">
<path d="M91.5562 1.66675H82.6633C80.2076 1.66675 78.2168 3.53223 78.2168 5.83342V14.1667C78.2168 16.4679 80.2076 18.3334 82.6633 18.3334H91.5562C94.0119 18.3334 96.0027 16.4679 96.0027 14.1667V5.83342C96.0027 3.53223 94.0119 1.66675 91.5562 1.66675Z" stroke="white" stroke-width="2" stroke-linecap="round" stroke-linejoin="round"/>
<path d="M90.6667 9.47501C90.7765 10.1685 90.65 10.8769 90.3054 11.4992C89.9608 12.1215 89.4156 12.6262 88.7473 12.9414C88.079 13.2566 87.3216 13.3663 86.5829 13.2549C85.8442 13.1436 85.1618 12.8167 84.6327 12.321C84.1036 11.8252 83.7549 11.1857 83.636 10.4935C83.5171 9.8013 83.6342 9.09158 83.9706 8.46532C84.307 7.83905 84.8455 7.32812 85.5097 7.00521C86.1738 6.68229 86.9297 6.56383 87.6698 6.66667C88.4247 6.77158 89.1236 7.10123 89.6633 7.60693C90.203 8.11263 90.5548 8.76757 90.6667 9.47501Z" stroke="white" stroke-width="2" stroke-linecap="round" stroke-linejoin="round"/>
<path d="M92.001 5.41675H92.0106" stroke="white" stroke-width="2" stroke-linecap="round" stroke-linejoin="round"/>
</g>
<path fill-rule="evenodd" clip-rule="evenodd" d="M57.6396 4.29942C57.9425 4.59206 58.1577 4.95443 58.2633 5.34992C58.5454 6.8155 58.6824 8.30238 58.6724 9.79158C58.678 11.2585 58.5411 12.7229 58.2633 14.1666C58.1577 14.5621 57.9425 14.9244 57.6396 15.2171C57.3367 15.5097 56.9567 15.7223 56.5381 15.8333C55.0085 16.2166 48.8902 16.2166 48.8902 16.2166C48.8902 16.2166 42.7718 16.2166 41.2422 15.8333C40.8321 15.7281 40.4579 15.5256 40.1556 15.2453C39.8534 14.965 39.6335 14.6165 39.517 14.2333C39.2349 12.7677 39.098 11.2808 39.1079 9.79158C39.1001 8.31351 39.2371 6.83788 39.517 5.38325C39.6226 4.98776 39.8378 4.6254 40.1407 4.33276C40.4436 4.04012 40.8236 3.82757 41.2422 3.71659C42.7718 3.33325 48.8902 3.33325 48.8902 3.33325C48.8902 3.33325 55.0085 3.33325 56.5381 3.68325C56.9567 3.79424 57.3367 4.00679 57.6396 4.29942ZM52.0031 9.79161L46.8896 12.5166V7.06661L52.0031 9.79161Z" fill="white"/>
<defs>
<clipPath id="clip0_1_1014">
<rect width="21.3431" height="20" fill="white" transform="translate(76.4385)"/>
</clipPath>
</defs>
</svg>
